<svg width="124" height="115" viewBox="0 0 124 115" fill="none" xmlns="http://www.w3.org/2000/svg">
<rect width="124" height="115" rx="57.5" fill="white"/>
<path d="M65.64 52.68H68.664C69.88 52.68 70.888 52.52 71.688 52.2C72.488 51.848 73.176 51.304 73.752 50.568L92.904 26.328C93.704 25.304 94.536 24.6 95.4 24.216C96.296 23.8 97.416 23.592 98.76 23.592H109.896L86.52 52.44C85.144 54.2 83.72 55.448 82.248 56.184C83.304 56.568 84.248 57.112 85.08 57.816C85.944 58.488 86.76 59.384 87.528 60.504L111.624 93H100.248C98.712 93 97.56 92.792 96.792 92.376C96.056 91.928 95.432 91.288 94.92 90.456L75.288 64.824C74.68 63.96 73.976 63.352 73.176 63C72.376 62.648 71.224 62.472 69.72 62.472H65.64V93H52.728V23.592H65.64V52.68Z" fill="#DBA81A"/>
<path d="M28.48 71.296C29.312 72.256 30.208 72.928 31.168 73.312C32.1493 73.696 33.1627 73.888 34.208 73.888C35.296 73.888 36.2773 73.696 37.152 73.312C38.048 72.9067 38.816 72.2773 39.456 71.424C40.096 70.5493 40.5867 69.4187 40.928 68.032C41.2693 66.6453 41.44 64.9707 41.44 63.008C41.44 61.2587 41.3013 59.776 41.024 58.56C40.7467 57.3227 40.3307 56.3093 39.776 55.52C39.2427 54.7307 38.5813 54.1547 37.792 53.792C37.0027 53.4293 36.0853 53.248 35.04 53.248C33.6533 53.248 32.448 53.5573 31.424 54.176C30.4213 54.7733 29.44 55.6587 28.48 56.832V71.296ZM28.48 50.816C29.7813 49.5147 31.2213 48.4693 32.8 47.68C34.3787 46.8907 36.1493 46.496 38.112 46.496C40.0107 46.496 41.7173 46.88 43.232 47.648C44.768 48.3947 46.0693 49.472 47.136 50.88C48.224 52.288 49.056 53.9947 49.632 56C50.2293 57.984 50.528 60.2133 50.528 62.688C50.528 65.3547 50.1867 67.7867 49.504 69.984C48.8427 72.16 47.8933 74.0267 46.656 75.584C45.4187 77.1413 43.936 78.3467 42.208 79.2C40.5013 80.0533 38.592 80.48 36.48 80.48C35.456 80.48 34.5387 80.3733 33.728 80.16C32.9173 79.968 32.1707 79.6907 31.488 79.328C30.8053 78.9653 30.176 78.5387 29.6 78.048C29.024 77.536 28.48 76.9707 27.968 76.352L27.616 78.336C27.4667 78.9547 27.2213 79.392 26.88 79.648C26.5387 79.8827 26.08 80 25.504 80H19.648V32.288H28.48V50.816Z" fill="#2B2D42"/>
</svg>
